<svg xmlns="http://www.w3.org/2000/svg" viewBox="0 0 370 370" width="500" height="500">
<rect width="370" height="370" fill="white" />
<rect x="2" y="2" width="6" height="6" fill="#000080" />
<rect x="12" y="2" width="6" height="6" fill="#000080" />
<rect x="22" y="2" width="6" height="6" fill="#000080" />
<rect x="32" y="2" width="6" height="6" fill="#000080" />
<rect x="42" y="2" width="6" height="6" fill="#000080" />
<rect x="52" y="2" width="6" height="6" fill="#000080" />
<rect x="62" y="2" width="6" height="6" fill="#000080" />
<rect x="102" y="2" width="6" height="6" fill="#000080" />
<rect x="112" y="2" width="6" height="6" fill="#000080" />
<rect x="132" y="2" width="6" height="6" fill="#000080" />
<rect x="142" y="2" width="6" height="6" fill="#000080" />
<rect x="172" y="2" width="6" height="6" fill="#000080" />
<rect x="192" y="2" width="6" height="6" fill="#000080" />
<rect x="212" y="2" width="6" height="6" fill="#000080" />
<rect x="282" y="2" width="6" height="6" fill="#000080" />
<rect x="302" y="2" width="6" height="6" fill="#000080" />
<rect x="312" y="2" width="6" height="6" fill="#000080" />
<rect x="322" y="2" width="6" height="6" fill="#000080" />
<rect x="332" y="2" width="6" height="6" fill="#000080" />
<rect x="342" y="2" width="6" height="6" fill="#000080" />
<rect x="352" y="2" width="6" height="6" fill="#000080" />
<rect x="362" y="2" width="6" height="6" fill="#000080" />
<rect x="2" y="12" width="6" height="6" fill="#000080" />
<rect x="62" y="12" width="6" height="6" fill="#000080" />
<rect x="92" y="12" width="6" height="6" fill="#000080" />
<rect x="102" y="12" width="6" height="6" fill="#000080" />
<rect x="112" y="12" width="6" height="6" fill="#000080" />
<rect x="122" y="12" width="6" height="6" fill="#000080" />
<rect x="132" y="12" width="6" height="6" fill="#000080" />
<rect x="142" y="12" width="6" height="6" fill="#000080" />
<rect x="172" y="12" width="6" height="6" fill="#000080" />
<rect x="192" y="12" width="6" height="6" fill="#000080" />
<rect x="222" y="12" width="6" height="6" fill="#000080" />
<rect x="242" y="12" width="6" height="6" fill="#000080" />
<rect x="252" y="12" width="6" height="6" fill="#000080" />
<rect x="262" y="12" width="6" height="6" fill="#000080" />
<rect x="302" y="12" width="6" height="6" fill="#000080" />
<rect x="362" y="12" width="6" height="6" fill="#000080" />
<rect x="2" y="22" width="6" height="6" fill="#000080" />
<rect x="22" y="22" width="6" height="6" fill="#000080" />
<rect x="32" y="22" width="6" height="6" fill="#000080" />
<rect x="42" y="22" width="6" height="6" fill="#000080" />
<rect x="62" y="22" width="6" height="6" fill="#000080" />
<rect x="92" y="22" width="6" height="6" fill="#000080" />
<rect x="102" y="22" width="6" height="6" fill="#000080" />
<rect x="132" y="22" width="6" height="6" fill="#000080" />
<rect x="152" y="22" width="6" height="6" fill="#000080" />
<rect x="172" y="22" width="6" height="6" fill="#000080" />
<rect x="182" y="22" width="6" height="6" fill="#000080" />
<rect x="192" y="22" width="6" height="6" fill="#000080" />
<rect x="202" y="22" width="6" height="6" fill="#000080" />
<rect x="222" y="22" width="6" height="6" fill="#000080" />
<rect x="232" y="22" width="6" height="6" fill="#000080" />
<rect x="242" y="22" width="6" height="6" fill="#000080" />
<rect x="252" y="22" width="6" height="6" fill="#000080" />
<rect x="272" y="22" width="6" height="6" fill="#000080" />
<rect x="302" y="22" width="6" height="6" fill="#000080" />
<rect x="322" y="22" width="6" height="6" fill="#000080" />
<rect x="332" y="22" width="6" height="6" fill="#000080" />
<rect x="342" y="22" width="6" height="6" fill="#000080" />
<rect x="362" y="22" width="6" height="6" fill="#000080" />
<rect x="2" y="32" width="6" height="6" fill="#000080" />
<rect x="22" y="32" width="6" height="6" fill="#000080" />
<rect x="32" y="32" width="6" height="6" fill="#000080" />
<rect x="42" y="32" width="6" height="6" fill="#000080" />
<rect x="62" y="32" width="6" height="6" fill="#000080" />
<rect x="92" y="32" width="6" height="6" fill="#000080" />
<rect x="112" y="32" width="6" height="6" fill="#000080" />
<rect x="122" y="32" width="6" height="6" fill="#000080" />
<rect x="182" y="32" width="6" height="6" fill="#000080" />
<rect x="202" y="32" width="6" height="6" fill="#000080" />
<rect x="232" y="32" width="6" height="6" fill="#000080" />
<rect x="252" y="32" width="6" height="6" fill="#000080" />
<rect x="262" y="32" width="6" height="6" fill="#000080" />
<rect x="302" y="32" width="6" height="6" fill="#000080" />
<rect x="322" y="32" width="6" height="6" fill="#000080" />
<rect x="332" y="32" width="6" height="6" fill="#000080" />
<rect x="342" y="32" width="6" height="6" fill="#000080" />
<rect x="362" y="32" width="6" height="6" fill="#000080" />
<rect x="2" y="42" width="6" height="6" fill="#000080" />
<rect x="22" y="42" width="6" height="6" fill="#000080" />
<rect x="32" y="42" width="6" height="6" fill="#000080" />
<rect x="40" y="40" width="10" height="10" fill="#996515" />
<rect x="60" y="40" width="10" height="10" fill="#996515" />
<rect x="80" y="40" width="10" height="10" fill="#996515" />
<rect x="90" y="40" width="10" height="10" fill="#996515" />
<rect x="100" y="40" width="10" height="10" fill="#996515" />
<rect x="132" y="42" width="6" height="6" fill="#000080" />
<rect x="142" y="42" width="6" height="6" fill="#000080" />
<rect x="152" y="42" width="6" height="6" fill="#000080" />
<rect x="162" y="42" width="6" height="6" fill="#000080" />
<rect x="182" y="42" width="6" height="6" fill="#000080" />
<rect x="212" y="42" width="6" height="6" fill="#000080" />
<rect x="222" y="42" width="6" height="6" fill="#000080" />
<rect x="242" y="42" width="6" height="6" fill="#000080" />
<rect x="252" y="42" width="6" height="6" fill="#000080" />
<rect x="260" y="40" width="10" height="10" fill="#996515" />
<rect x="270" y="40" width="10" height="10" fill="#996515" />
<rect x="300" y="40" width="10" height="10" fill="#996515" />
<rect x="320" y="40" width="10" height="10" fill="#996515" />
<rect x="332" y="42" width="6" height="6" fill="#000080" />
<rect x="342" y="42" width="6" height="6" fill="#000080" />
<rect x="362" y="42" width="6" height="6" fill="#000080" />
<rect x="2" y="52" width="6" height="6" fill="#000080" />
<rect x="60" y="50" width="10" height="10" fill="#996515" />
<rect x="100" y="50" width="10" height="10" fill="#996515" />
<rect x="112" y="52" width="6" height="6" fill="#000080" />
<rect x="122" y="52" width="6" height="6" fill="#000080" />
<rect x="132" y="52" width="6" height="6" fill="#000080" />
<rect x="142" y="52" width="6" height="6" fill="#000080" />
<rect x="160" y="50" width="10" height="10" fill="#000080" />
<rect x="190" y="50" width="10" height="10" fill="#000080" />
<rect x="200" y="50" width="10" height="10" fill="#000080" />
<rect x="212" y="52" width="6" height="6" fill="#000080" />
<rect x="222" y="52" width="6" height="6" fill="#000080" />
<rect x="232" y="52" width="6" height="6" fill="#000080" />
<rect x="242" y="52" width="6" height="6" fill="#000080" />
<rect x="252" y="52" width="6" height="6" fill="#000080" />
<rect x="260" y="50" width="10" height="10" fill="#996515" />
<rect x="300" y="50" width="10" height="10" fill="#996515" />
<rect x="362" y="52" width="6" height="6" fill="#000080" />
<rect x="2" y="62" width="6" height="6" fill="#000080" />
<rect x="12" y="62" width="6" height="6" fill="#000080" />
<rect x="22" y="62" width="6" height="6" fill="#000080" />
<rect x="32" y="62" width="6" height="6" fill="#000080" />
<rect x="40" y="60" width="10" height="10" fill="#996515" />
<rect x="50" y="60" width="10" height="10" fill="#996515" />
<rect x="60" y="60" width="10" height="10" fill="#996515" />
<rect x="80" y="60" width="10" height="10" fill="#996515" />
<rect x="100" y="60" width="10" height="10" fill="#996515" />
<rect x="122" y="62" width="6" height="6" fill="#000080" />
<rect x="140" y="60" width="10" height="10" fill="#000080" />
<rect x="160" y="60" width="10" height="10" fill="#000080" />
<rect x="180" y="60" width="10" height="10" fill="#000080" />
<rect x="200" y="60" width="10" height="10" fill="#000080" />
<rect x="220" y="60" width="10" height="10" fill="#000080" />
<rect x="242" y="62" width="6" height="6" fill="#000080" />
<rect x="260" y="60" width="10" height="10" fill="#996515" />
<rect x="280" y="60" width="10" height="10" fill="#996515" />
<rect x="300" y="60" width="10" height="10" fill="#996515" />
<rect x="310" y="60" width="10" height="10" fill="#996515" />
<rect x="320" y="60" width="10" height="10" fill="#996515" />
<rect x="332" y="62" width="6" height="6" fill="#000080" />
<rect x="342" y="62" width="6" height="6" fill="#000080" />
<rect x="352" y="62" width="6" height="6" fill="#000080" />
<rect x="362" y="62" width="6" height="6" fill="#000080" />
<rect x="80" y="70" width="10" height="10" fill="#996515" />
<rect x="90" y="70" width="10" height="10" fill="#996515" />
<rect x="112" y="72" width="6" height="6" fill="#000080" />
<rect x="120" y="70" width="10" height="10" fill="#000080" />
<rect x="130" y="70" width="10" height="10" fill="#000080" />
<rect x="160" y="70" width="10" height="10" fill="#000080" />
<rect x="210" y="70" width="10" height="10" fill="#000080" />
<rect x="230" y="70" width="10" height="10" fill="#000080" />
<rect x="270" y="70" width="10" height="10" fill="#996515" />
<rect x="280" y="70" width="10" height="10" fill="#996515" />
<rect x="22" y="82" width="6" height="6" fill="#000080" />
<rect x="32" y="82" width="6" height="6" fill="#000080" />
<rect x="60" y="80" width="10" height="10" fill="#996515" />
<rect x="70" y="80" width="10" height="10" fill="#996515" />
<rect x="80" y="80" width="10" height="10" fill="#996515" />
<rect x="120" y="80" width="10" height="10" fill="#000080" />
<rect x="150" y="80" width="10" height="10" fill="#000080" />
<rect x="170" y="80" width="10" height="10" fill="#000080" />
<rect x="190" y="80" width="10" height="10" fill="#000080" />
<rect x="200" y="80" width="10" height="10" fill="#000080" />
<rect x="250" y="80" width="10" height="10" fill="#000080" />
<rect x="270" y="80" width="10" height="10" fill="#996515" />
<rect x="280" y="80" width="10" height="10" fill="#996515" />
<rect x="290" y="80" width="10" height="10" fill="#996515" />
<rect x="300" y="80" width="10" height="10" fill="#996515" />
<rect x="320" y="80" width="10" height="10" fill="#996515" />
<rect x="2" y="92" width="6" height="6" fill="#000080" />
<rect x="12" y="92" width="6" height="6" fill="#000080" />
<rect x="22" y="92" width="6" height="6" fill="#000080" />
<rect x="32" y="92" width="6" height="6" fill="#000080" />
<rect x="50" y="90" width="10" height="10" fill="#996515" />
<rect x="70" y="90" width="10" height="10" fill="#996515" />
<rect x="100" y="90" width="10" height="10" fill="#996515" />
<rect x="110" y="90" width="10" height="10" fill="#000080" />
<rect x="120" y="90" width="10" height="10" fill="#000080" />
<rect x="140" y="90" width="10" height="10" fill="#000080" />
<rect x="172" y="92" width="6" height="6" fill="#000080" />
<rect x="250" y="90" width="10" height="10" fill="#000080" />
<rect x="280" y="90" width="10" height="10" fill="#996515" />
<rect x="342" y="92" width="6" height="6" fill="#000080" />
<rect x="32" y="102" width="6" height="6" fill="#000080" />
<rect x="40" y="100" width="10" height="10" fill="#996515" />
<rect x="60" y="100" width="10" height="10" fill="#996515" />
<rect x="70" y="100" width="10" height="10" fill="#996515" />
<rect x="90" y="100" width="10" height="10" fill="#996515" />
<rect x="110" y="100" width="10" height="10" fill="#000080" />
<rect x="120" y="100" width="10" height="10" fill="#000080" />
<rect x="130" y="100" width="10" height="10" fill="#000080" />
<rect x="140" y="100" width="10" height="10" fill="#000080" />
<rect x="162" y="102" width="6" height="6" fill="#000080" />
<rect x="172" y="102" width="6" height="6" fill="#000080" />
<rect x="182" y="102" width="6" height="6" fill="#000080" />
<rect x="192" y="102" width="6" height="6" fill="#000080" />
<rect x="212" y="102" width="6" height="6" fill="#000080" />
<rect x="230" y="100" width="10" height="10" fill="#000080" />
<rect x="240" y="100" width="10" height="10" fill="#000080" />
<rect x="250" y="100" width="10" height="10" fill="#000080" />
<rect x="280" y="100" width="10" height="10" fill="#996515" />
<rect x="290" y="100" width="10" height="10" fill="#996515" />
<rect x="320" y="100" width="10" height="10" fill="#996515" />
<rect x="332" y="102" width="6" height="6" fill="#000080" />
<rect x="342" y="102" width="6" height="6" fill="#000080" />
<rect x="22" y="112" width="6" height="6" fill="#000080" />
<rect x="102" y="112" width="6" height="6" fill="#000080" />
<rect x="120" y="110" width="10" height="10" fill="#000080" />
<rect x="180" y="110" width="10" height="10" fill="#000080" />
<rect x="210" y="110" width="10" height="10" fill="#000080" />
<rect x="220" y="110" width="10" height="10" fill="#000080" />
<rect x="230" y="110" width="10" height="10" fill="#000080" />
<rect x="250" y="110" width="10" height="10" fill="#000080" />
<rect x="262" y="112" width="6" height="6" fill="#000080" />
<rect x="272" y="112" width="6" height="6" fill="#000080" />
<rect x="322" y="112" width="6" height="6" fill="#000080" />
<rect x="332" y="112" width="6" height="6" fill="#000080" />
<rect x="342" y="112" width="6" height="6" fill="#000080" />
<rect x="362" y="112" width="6" height="6" fill="#000080" />
<rect x="12" y="122" width="6" height="6" fill="#000080" />
<rect x="62" y="122" width="6" height="6" fill="#000080" />
<rect x="82" y="122" width="6" height="6" fill="#000080" />
<rect x="102" y="122" width="6" height="6" fill="#000080" />
<rect x="112" y="122" width="6" height="6" fill="#000080" />
<rect x="130" y="120" width="10" height="10" fill="#000080" />
<rect x="150" y="120" width="10" height="10" fill="#000080" />
<rect x="170" y="120" width="10" height="10" fill="#000080" />
<rect x="200" y="120" width="10" height="10" fill="#000080" />
<rect x="220" y="120" width="10" height="10" fill="#000080" />
<rect x="230" y="120" width="10" height="10" fill="#000080" />
<rect x="252" y="122" width="6" height="6" fill="#000080" />
<rect x="262" y="122" width="6" height="6" fill="#000080" />
<rect x="282" y="122" width="6" height="6" fill="#000080" />
<rect x="292" y="122" width="6" height="6" fill="#000080" />
<rect x="302" y="122" width="6" height="6" fill="#000080" />
<rect x="322" y="122" width="6" height="6" fill="#000080" />
<rect x="332" y="122" width="6" height="6" fill="#000080" />
<rect x="342" y="122" width="6" height="6" fill="#000080" />
<rect x="362" y="122" width="6" height="6" fill="#000080" />
<rect x="2" y="132" width="6" height="6" fill="#000080" />
<rect x="12" y="132" width="6" height="6" fill="#000080" />
<rect x="32" y="132" width="6" height="6" fill="#000080" />
<rect x="72" y="132" width="6" height="6" fill="#000080" />
<rect x="92" y="132" width="6" height="6" fill="#000080" />
<rect x="122" y="132" width="6" height="6" fill="#000080" />
<rect x="140" y="130" width="10" height="10" fill="#000080" />
<rect x="150" y="130" width="10" height="10" fill="#000080" />
<rect x="160" y="130" width="10" height="10" fill="#000080" />
<rect x="170" y="130" width="10" height="10" fill="#000080" />
<rect x="180" y="130" width="10" height="10" fill="#000080" />
<rect x="190" y="130" width="10" height="10" fill="#000080" />
<rect x="200" y="130" width="10" height="10" fill="#000080" />
<rect x="220" y="130" width="10" height="10" fill="#000080" />
<rect x="232" y="132" width="6" height="6" fill="#000080" />
<rect x="272" y="132" width="6" height="6" fill="#000080" />
<rect x="282" y="132" width="6" height="6" fill="#000080" />
<rect x="302" y="132" width="6" height="6" fill="#000080" />
<rect x="312" y="132" width="6" height="6" fill="#000080" />
<rect x="322" y="132" width="6" height="6" fill="#000080" />
<rect x="342" y="132" width="6" height="6" fill="#000080" />
<rect x="352" y="132" width="6" height="6" fill="#000080" />
<rect x="362" y="132" width="6" height="6" fill="#000080" />
<rect x="2" y="142" width="6" height="6" fill="#000080" />
<rect x="52" y="142" width="6" height="6" fill="#000080" />
<rect x="62" y="142" width="6" height="6" fill="#000080" />
<rect x="72" y="142" width="6" height="6" fill="#000080" />
<rect x="82" y="142" width="6" height="6" fill="#000080" />
<rect x="122" y="142" width="6" height="6" fill="#000080" />
<rect x="132" y="142" width="6" height="6" fill="#000080" />
<rect x="142" y="142" width="6" height="6" fill="#000080" />
<rect x="212" y="142" width="6" height="6" fill="#000080" />
<rect x="262" y="142" width="6" height="6" fill="#000080" />
<rect x="292" y="142" width="6" height="6" fill="#000080" />
<rect x="302" y="142" width="6" height="6" fill="#000080" />
<rect x="342" y="142" width="6" height="6" fill="#000080" />
<rect x="2" y="152" width="6" height="6" fill="#000080" />
<rect x="12" y="152" width="6" height="6" fill="#000080" />
<rect x="22" y="152" width="6" height="6" fill="#000080" />
<rect x="32" y="152" width="6" height="6" fill="#000080" />
<rect x="42" y="152" width="6" height="6" fill="#000080" />
<rect x="80" y="150" width="10" height="10" fill="#000080" />
<rect x="100" y="150" width="10" height="10" fill="#000080" />
<rect x="110" y="150" width="10" height="10" fill="#000080" />
<rect x="130" y="150" width="10" height="10" fill="#000080" />
<rect x="140" y="150" width="10" height="10" fill="#000080" />
<rect x="150" y="150" width="10" height="10" fill="#000080" />
<rect x="160" y="150" width="10" height="10" fill="#000080" />
<rect x="180" y="150" width="10" height="10" fill="#000080" />
<rect x="210" y="150" width="10" height="10" fill="#000080" />
<rect x="220" y="150" width="10" height="10" fill="#000080" />
<rect x="230" y="150" width="10" height="10" fill="#000080" />
<rect x="260" y="150" width="10" height="10" fill="#000080" />
<rect x="270" y="150" width="10" height="10" fill="#000080" />
<rect x="280" y="150" width="10" height="10" fill="#000080" />
<rect x="322" y="152" width="6" height="6" fill="#000080" />
<rect x="352" y="152" width="6" height="6" fill="#000080" />
<rect x="12" y="162" width="6" height="6" fill="#000080" />
<rect x="22" y="162" width="6" height="6" fill="#000080" />
<rect x="62" y="162" width="6" height="6" fill="#000080" />
<rect x="80" y="160" width="10" height="10" fill="#000080" />
<rect x="90" y="160" width="10" height="10" fill="#000080" />
<rect x="100" y="160" width="10" height="10" fill="#000080" />
<rect x="160" y="160" width="10" height="10" fill="#000080" />
<rect x="180" y="160" width="10" height="10" fill="#000080" />
<rect x="200" y="160" width="10" height="10" fill="#000080" />
<rect x="250" y="160" width="10" height="10" fill="#000080" />
<rect x="332" y="162" width="6" height="6" fill="#000080" />
<rect x="342" y="162" width="6" height="6" fill="#000080" />
<rect x="2" y="172" width="6" height="6" fill="#000080" />
<rect x="12" y="172" width="6" height="6" fill="#000080" />
<rect x="22" y="172" width="6" height="6" fill="#000080" />
<rect x="32" y="172" width="6" height="6" fill="#000080" />
<rect x="42" y="172" width="6" height="6" fill="#000080" />
<rect x="52" y="172" width="6" height="6" fill="#000080" />
<rect x="72" y="172" width="6" height="6" fill="#000080" />
<rect x="110" y="170" width="10" height="10" fill="#000080" />
<rect x="120" y="170" width="10" height="10" fill="#000080" />
<rect x="140" y="170" width="10" height="10" fill="#000080" />
<rect x="150" y="170" width="10" height="10" fill="#000080" />
<rect x="160" y="170" width="10" height="10" fill="#000080" />
<rect x="170" y="170" width="10" height="10" fill="#000080" />
<rect x="200" y="170" width="10" height="10" fill="#000080" />
<rect x="220" y="170" width="10" height="10" fill="#000080" />
<rect x="240" y="170" width="10" height="10" fill="#000080" />
<rect x="270" y="170" width="10" height="10" fill="#000080" />
<rect x="302" y="172" width="6" height="6" fill="#000080" />
<rect x="332" y="172" width="6" height="6" fill="#000080" />
<rect x="362" y="172" width="6" height="6" fill="#000080" />
<rect x="32" y="182" width="6" height="6" fill="#000080" />
<rect x="42" y="182" width="6" height="6" fill="#000080" />
<rect x="62" y="182" width="6" height="6" fill="#000080" />
<rect x="100" y="180" width="10" height="10" fill="#000080" />
<rect x="130" y="180" width="10" height="10" fill="#000080" />
<rect x="140" y="180" width="10" height="10" fill="#000080" />
<rect x="160" y="180" width="10" height="10" fill="#000080" />
<rect x="180" y="180" width="10" height="10" fill="#000080" />
<rect x="200" y="180" width="10" height="10" fill="#000080" />
<rect x="240" y="180" width="10" height="10" fill="#000080" />
<rect x="250" y="180" width="10" height="10" fill="#000080" />
<rect x="260" y="180" width="10" height="10" fill="#000080" />
<rect x="270" y="180" width="10" height="10" fill="#000080" />
<rect x="280" y="180" width="10" height="10" fill="#000080" />
<rect x="292" y="182" width="6" height="6" fill="#000080" />
<rect x="312" y="182" width="6" height="6" fill="#000080" />
<rect x="332" y="182" width="6" height="6" fill="#000080" />
<rect x="342" y="182" width="6" height="6" fill="#000080" />
<rect x="352" y="182" width="6" height="6" fill="#000080" />
<rect x="362" y="182" width="6" height="6" fill="#000080" />
<rect x="32" y="192" width="6" height="6" fill="#000080" />
<rect x="52" y="192" width="6" height="6" fill="#000080" />
<rect x="70" y="190" width="10" height="10" fill="#000080" />
<rect x="92" y="192" width="6" height="6" fill="#000080" />
<rect x="122" y="192" width="6" height="6" fill="#000080" />
<rect x="152" y="192" width="6" height="6" fill="#000080" />
<rect x="170" y="190" width="10" height="10" fill="#000080" />
<rect x="200" y="190" width="10" height="10" fill="#000080" />
<rect x="222" y="192" width="6" height="6" fill="#000080" />
<rect x="262" y="192" width="6" height="6" fill="#000080" />
<rect x="290" y="190" width="10" height="10" fill="#000080" />
<rect x="300" y="190" width="10" height="10" fill="#000080" />
<rect x="322" y="192" width="6" height="6" fill="#000080" />
<rect x="332" y="192" width="6" height="6" fill="#000080" />
<rect x="2" y="202" width="6" height="6" fill="#000080" />
<rect x="12" y="202" width="6" height="6" fill="#000080" />
<rect x="22" y="202" width="6" height="6" fill="#000080" />
<rect x="32" y="202" width="6" height="6" fill="#000080" />
<rect x="52" y="202" width="6" height="6" fill="#000080" />
<rect x="60" y="200" width="10" height="10" fill="#000080" />
<rect x="70" y="200" width="10" height="10" fill="#000080" />
<rect x="92" y="202" width="6" height="6" fill="#000080" />
<rect x="102" y="202" width="6" height="6" fill="#000080" />
<rect x="112" y="202" width="6" height="6" fill="#000080" />
<rect x="122" y="202" width="6" height="6" fill="#000080" />
<rect x="132" y="202" width="6" height="6" fill="#000080" />
<rect x="152" y="202" width="6" height="6" fill="#000080" />
<rect x="160" y="200" width="10" height="10" fill="#000080" />
<rect x="170" y="200" width="10" height="10" fill="#000080" />
<rect x="190" y="200" width="10" height="10" fill="#000080" />
<rect x="200" y="200" width="10" height="10" fill="#000080" />
<rect x="222" y="202" width="6" height="6" fill="#000080" />
<rect x="262" y="202" width="6" height="6" fill="#000080" />
<rect x="282" y="202" width="6" height="6" fill="#000080" />
<rect x="290" y="200" width="10" height="10" fill="#000080" />
<rect x="322" y="202" width="6" height="6" fill="#000080" />
<rect x="362" y="202" width="6" height="6" fill="#000080" />
<rect x="2" y="212" width="6" height="6" fill="#000080" />
<rect x="22" y="212" width="6" height="6" fill="#000080" />
<rect x="42" y="212" width="6" height="6" fill="#000080" />
<rect x="70" y="210" width="10" height="10" fill="#000080" />
<rect x="80" y="210" width="10" height="10" fill="#000080" />
<rect x="102" y="212" width="6" height="6" fill="#000080" />
<rect x="122" y="212" width="6" height="6" fill="#000080" />
<rect x="132" y="212" width="6" height="6" fill="#000080" />
<rect x="142" y="212" width="6" height="6" fill="#000080" />
<rect x="160" y="210" width="10" height="10" fill="#000080" />
<rect x="170" y="210" width="10" height="10" fill="#000080" />
<rect x="180" y="210" width="10" height="10" fill="#000080" />
<rect x="190" y="210" width="10" height="10" fill="#000080" />
<rect x="200" y="210" width="10" height="10" fill="#000080" />
<rect x="252" y="212" width="6" height="6" fill="#000080" />
<rect x="290" y="210" width="10" height="10" fill="#000080" />
<rect x="310" y="210" width="10" height="10" fill="#000080" />
<rect x="332" y="212" width="6" height="6" fill="#000080" />
<rect x="32" y="222" width="6" height="6" fill="#000080" />
<rect x="50" y="220" width="10" height="10" fill="#000080" />
<rect x="60" y="220" width="10" height="10" fill="#000080" />
<rect x="90" y="220" width="10" height="10" fill="#000080" />
<rect x="100" y="220" width="10" height="10" fill="#000080" />
<rect x="122" y="222" width="6" height="6" fill="#000080" />
<rect x="132" y="222" width="6" height="6" fill="#000080" />
<rect x="152" y="222" width="6" height="6" fill="#000080" />
<rect x="160" y="220" width="10" height="10" fill="#000080" />
<rect x="170" y="220" width="10" height="10" fill="#000080" />
<rect x="180" y="220" width="10" height="10" fill="#000080" />
<rect x="190" y="220" width="10" height="10" fill="#000080" />
<rect x="222" y="222" width="6" height="6" fill="#000080" />
<rect x="242" y="222" width="6" height="6" fill="#000080" />
<rect x="252" y="222" width="6" height="6" fill="#000080" />
<rect x="300" y="220" width="10" height="10" fill="#000080" />
<rect x="322" y="222" width="6" height="6" fill="#000080" />
<rect x="332" y="222" width="6" height="6" fill="#000080" />
<rect x="2" y="232" width="6" height="6" fill="#000080" />
<rect x="12" y="232" width="6" height="6" fill="#000080" />
<rect x="22" y="232" width="6" height="6" fill="#000080" />
<rect x="32" y="232" width="6" height="6" fill="#000080" />
<rect x="80" y="230" width="10" height="10" fill="#000080" />
<rect x="90" y="230" width="10" height="10" fill="#000080" />
<rect x="100" y="230" width="10" height="10" fill="#000080" />
<rect x="110" y="230" width="10" height="10" fill="#000080" />
<rect x="132" y="232" width="6" height="6" fill="#000080" />
<rect x="152" y="232" width="6" height="6" fill="#000080" />
<rect x="160" y="230" width="10" height="10" fill="#000080" />
<rect x="180" y="230" width="10" height="10" fill="#000080" />
<rect x="190" y="230" width="10" height="10" fill="#000080" />
<rect x="200" y="230" width="10" height="10" fill="#000080" />
<rect x="212" y="232" width="6" height="6" fill="#000080" />
<rect x="232" y="232" width="6" height="6" fill="#000080" />
<rect x="270" y="230" width="10" height="10" fill="#000080" />
<rect x="280" y="230" width="10" height="10" fill="#000080" />
<rect x="300" y="230" width="10" height="10" fill="#000080" />
<rect x="332" y="232" width="6" height="6" fill="#000080" />
<rect x="342" y="232" width="6" height="6" fill="#000080" />
<rect x="352" y="232" width="6" height="6" fill="#000080" />
<rect x="12" y="242" width="6" height="6" fill="#000080" />
<rect x="22" y="242" width="6" height="6" fill="#000080" />
<rect x="32" y="242" width="6" height="6" fill="#000080" />
<rect x="40" y="240" width="10" height="10" fill="#000080" />
<rect x="60" y="240" width="10" height="10" fill="#000080" />
<rect x="70" y="240" width="10" height="10" fill="#000080" />
<rect x="100" y="240" width="10" height="10" fill="#000080" />
<rect x="110" y="240" width="10" height="10" fill="#000080" />
<rect x="120" y="240" width="10" height="10" fill="#000080" />
<rect x="130" y="240" width="10" height="10" fill="#000080" />
<rect x="150" y="240" width="10" height="10" fill="#000080" />
<rect x="190" y="240" width="10" height="10" fill="#000080" />
<rect x="200" y="240" width="10" height="10" fill="#000080" />
<rect x="210" y="240" width="10" height="10" fill="#000080" />
<rect x="230" y="240" width="10" height="10" fill="#000080" />
<rect x="240" y="240" width="10" height="10" fill="#000080" />
<rect x="260" y="240" width="10" height="10" fill="#000080" />
<rect x="290" y="240" width="10" height="10" fill="#000080" />
<rect x="300" y="240" width="10" height="10" fill="#000080" />
<rect x="320" y="240" width="10" height="10" fill="#000080" />
<rect x="332" y="242" width="6" height="6" fill="#000080" />
<rect x="342" y="242" width="6" height="6" fill="#000080" />
<rect x="22" y="252" width="6" height="6" fill="#000080" />
<rect x="32" y="252" width="6" height="6" fill="#000080" />
<rect x="42" y="252" width="6" height="6" fill="#000080" />
<rect x="72" y="252" width="6" height="6" fill="#000080" />
<rect x="110" y="250" width="10" height="10" fill="#000080" />
<rect x="140" y="250" width="10" height="10" fill="#000080" />
<rect x="150" y="250" width="10" height="10" fill="#000080" />
<rect x="200" y="250" width="10" height="10" fill="#000080" />
<rect x="210" y="250" width="10" height="10" fill="#000080" />
<rect x="220" y="250" width="10" height="10" fill="#000080" />
<rect x="230" y="250" width="10" height="10" fill="#000080" />
<rect x="240" y="250" width="10" height="10" fill="#000080" />
<rect x="260" y="250" width="10" height="10" fill="#000080" />
<rect x="272" y="252" width="6" height="6" fill="#000080" />
<rect x="282" y="252" width="6" height="6" fill="#000080" />
<rect x="292" y="252" width="6" height="6" fill="#000080" />
<rect x="302" y="252" width="6" height="6" fill="#000080" />
<rect x="312" y="252" width="6" height="6" fill="#000080" />
<rect x="322" y="252" width="6" height="6" fill="#000080" />
<rect x="332" y="252" width="6" height="6" fill="#000080" />
<rect x="342" y="252" width="6" height="6" fill="#000080" />
<rect x="352" y="252" width="6" height="6" fill="#000080" />
<rect x="362" y="252" width="6" height="6" fill="#000080" />
<rect x="12" y="262" width="6" height="6" fill="#000080" />
<rect x="22" y="262" width="6" height="6" fill="#000080" />
<rect x="40" y="260" width="10" height="10" fill="#996515" />
<rect x="60" y="260" width="10" height="10" fill="#996515" />
<rect x="70" y="260" width="10" height="10" fill="#996515" />
<rect x="130" y="260" width="10" height="10" fill="#000080" />
<rect x="140" y="260" width="10" height="10" fill="#000080" />
<rect x="160" y="260" width="10" height="10" fill="#000080" />
<rect x="180" y="260" width="10" height="10" fill="#000080" />
<rect x="190" y="260" width="10" height="10" fill="#000080" />
<rect x="200" y="260" width="10" height="10" fill="#000080" />
<rect x="220" y="260" width="10" height="10" fill="#000080" />
<rect x="230" y="260" width="10" height="10" fill="#000080" />
<rect x="262" y="262" width="6" height="6" fill="#000080" />
<rect x="352" y="262" width="6" height="6" fill="#000080" />
<rect x="2" y="272" width="6" height="6" fill="#000080" />
<rect x="22" y="272" width="6" height="6" fill="#000080" />
<rect x="32" y="272" width="6" height="6" fill="#000080" />
<rect x="50" y="270" width="10" height="10" fill="#996515" />
<rect x="70" y="270" width="10" height="10" fill="#996515" />
<rect x="90" y="270" width="10" height="10" fill="#996515" />
<rect x="132" y="272" width="6" height="6" fill="#000080" />
<rect x="142" y="272" width="6" height="6" fill="#000080" />
<rect x="152" y="272" width="6" height="6" fill="#000080" />
<rect x="160" y="270" width="10" height="10" fill="#000080" />
<rect x="170" y="270" width="10" height="10" fill="#000080" />
<rect x="180" y="270" width="10" height="10" fill="#000080" />
<rect x="212" y="272" width="6" height="6" fill="#000080" />
<rect x="232" y="272" width="6" height="6" fill="#000080" />
<rect x="262" y="272" width="6" height="6" fill="#000080" />
<rect x="292" y="272" width="6" height="6" fill="#000080" />
<rect x="352" y="272" width="6" height="6" fill="#000080" />
<rect x="32" y="282" width="6" height="6" fill="#000080" />
<rect x="40" y="280" width="10" height="10" fill="#996515" />
<rect x="60" y="280" width="10" height="10" fill="#996515" />
<rect x="80" y="280" width="10" height="10" fill="#996515" />
<rect x="90" y="280" width="10" height="10" fill="#996515" />
<rect x="100" y="280" width="10" height="10" fill="#996515" />
<rect x="132" y="282" width="6" height="6" fill="#000080" />
<rect x="142" y="282" width="6" height="6" fill="#000080" />
<rect x="162" y="282" width="6" height="6" fill="#000080" />
<rect x="172" y="282" width="6" height="6" fill="#000080" />
<rect x="212" y="282" width="6" height="6" fill="#000080" />
<rect x="222" y="282" width="6" height="6" fill="#000080" />
<rect x="252" y="282" width="6" height="6" fill="#000080" />
<rect x="282" y="282" width="6" height="6" fill="#000080" />
<rect x="292" y="282" width="6" height="6" fill="#000080" />
<rect x="302" y="282" width="6" height="6" fill="#000080" />
<rect x="312" y="282" width="6" height="6" fill="#000080" />
<rect x="322" y="282" width="6" height="6" fill="#000080" />
<rect x="342" y="282" width="6" height="6" fill="#000080" />
<rect x="362" y="282" width="6" height="6" fill="#000080" />
<rect x="80" y="290" width="10" height="10" fill="#996515" />
<rect x="90" y="290" width="10" height="10" fill="#996515" />
<rect x="100" y="290" width="10" height="10" fill="#996515" />
<rect x="112" y="292" width="6" height="6" fill="#000080" />
<rect x="122" y="292" width="6" height="6" fill="#000080" />
<rect x="152" y="292" width="6" height="6" fill="#000080" />
<rect x="162" y="292" width="6" height="6" fill="#000080" />
<rect x="192" y="292" width="6" height="6" fill="#000080" />
<rect x="202" y="292" width="6" height="6" fill="#000080" />
<rect x="232" y="292" width="6" height="6" fill="#000080" />
<rect x="242" y="292" width="6" height="6" fill="#000080" />
<rect x="262" y="292" width="6" height="6" fill="#000080" />
<rect x="282" y="292" width="6" height="6" fill="#000080" />
<rect x="322" y="292" width="6" height="6" fill="#000080" />
<rect x="332" y="292" width="6" height="6" fill="#000080" />
<rect x="342" y="292" width="6" height="6" fill="#000080" />
<rect x="352" y="292" width="6" height="6" fill="#000080" />
<rect x="362" y="292" width="6" height="6" fill="#000080" />
<rect x="2" y="302" width="6" height="6" fill="#000080" />
<rect x="12" y="302" width="6" height="6" fill="#000080" />
<rect x="22" y="302" width="6" height="6" fill="#000080" />
<rect x="32" y="302" width="6" height="6" fill="#000080" />
<rect x="40" y="300" width="10" height="10" fill="#996515" />
<rect x="50" y="300" width="10" height="10" fill="#996515" />
<rect x="60" y="300" width="10" height="10" fill="#996515" />
<rect x="80" y="300" width="10" height="10" fill="#996515" />
<rect x="100" y="300" width="10" height="10" fill="#996515" />
<rect x="112" y="302" width="6" height="6" fill="#000080" />
<rect x="122" y="302" width="6" height="6" fill="#000080" />
<rect x="132" y="302" width="6" height="6" fill="#000080" />
<rect x="162" y="302" width="6" height="6" fill="#000080" />
<rect x="192" y="302" width="6" height="6" fill="#000080" />
<rect x="202" y="302" width="6" height="6" fill="#000080" />
<rect x="212" y="302" width="6" height="6" fill="#000080" />
<rect x="222" y="302" width="6" height="6" fill="#000080" />
<rect x="242" y="302" width="6" height="6" fill="#000080" />
<rect x="262" y="302" width="6" height="6" fill="#000080" />
<rect x="282" y="302" width="6" height="6" fill="#000080" />
<rect x="302" y="302" width="6" height="6" fill="#000080" />
<rect x="322" y="302" width="6" height="6" fill="#000080" />
<rect x="332" y="302" width="6" height="6" fill="#000080" />
<rect x="352" y="302" width="6" height="6" fill="#000080" />
<rect x="362" y="302" width="6" height="6" fill="#000080" />
<rect x="2" y="312" width="6" height="6" fill="#000080" />
<rect x="60" y="310" width="10" height="10" fill="#996515" />
<rect x="100" y="310" width="10" height="10" fill="#996515" />
<rect x="122" y="312" width="6" height="6" fill="#000080" />
<rect x="142" y="312" width="6" height="6" fill="#000080" />
<rect x="172" y="312" width="6" height="6" fill="#000080" />
<rect x="182" y="312" width="6" height="6" fill="#000080" />
<rect x="192" y="312" width="6" height="6" fill="#000080" />
<rect x="232" y="312" width="6" height="6" fill="#000080" />
<rect x="242" y="312" width="6" height="6" fill="#000080" />
<rect x="262" y="312" width="6" height="6" fill="#000080" />
<rect x="272" y="312" width="6" height="6" fill="#000080" />
<rect x="282" y="312" width="6" height="6" fill="#000080" />
<rect x="322" y="312" width="6" height="6" fill="#000080" />
<rect x="332" y="312" width="6" height="6" fill="#000080" />
<rect x="362" y="312" width="6" height="6" fill="#000080" />
<rect x="2" y="322" width="6" height="6" fill="#000080" />
<rect x="22" y="322" width="6" height="6" fill="#000080" />
<rect x="32" y="322" width="6" height="6" fill="#000080" />
<rect x="40" y="320" width="10" height="10" fill="#996515" />
<rect x="60" y="320" width="10" height="10" fill="#996515" />
<rect x="90" y="320" width="10" height="10" fill="#996515" />
<rect x="112" y="322" width="6" height="6" fill="#000080" />
<rect x="122" y="322" width="6" height="6" fill="#000080" />
<rect x="142" y="322" width="6" height="6" fill="#000080" />
<rect x="152" y="322" width="6" height="6" fill="#000080" />
<rect x="192" y="322" width="6" height="6" fill="#000080" />
<rect x="202" y="322" width="6" height="6" fill="#000080" />
<rect x="212" y="322" width="6" height="6" fill="#000080" />
<rect x="242" y="322" width="6" height="6" fill="#000080" />
<rect x="262" y="322" width="6" height="6" fill="#000080" />
<rect x="282" y="322" width="6" height="6" fill="#000080" />
<rect x="292" y="322" width="6" height="6" fill="#000080" />
<rect x="302" y="322" width="6" height="6" fill="#000080" />
<rect x="312" y="322" width="6" height="6" fill="#000080" />
<rect x="322" y="322" width="6" height="6" fill="#000080" />
<rect x="332" y="322" width="6" height="6" fill="#000080" />
<rect x="352" y="322" width="6" height="6" fill="#000080" />
<rect x="2" y="332" width="6" height="6" fill="#000080" />
<rect x="22" y="332" width="6" height="6" fill="#000080" />
<rect x="32" y="332" width="6" height="6" fill="#000080" />
<rect x="42" y="332" width="6" height="6" fill="#000080" />
<rect x="62" y="332" width="6" height="6" fill="#000080" />
<rect x="82" y="332" width="6" height="6" fill="#000080" />
<rect x="92" y="332" width="6" height="6" fill="#000080" />
<rect x="102" y="332" width="6" height="6" fill="#000080" />
<rect x="112" y="332" width="6" height="6" fill="#000080" />
<rect x="142" y="332" width="6" height="6" fill="#000080" />
<rect x="152" y="332" width="6" height="6" fill="#000080" />
<rect x="162" y="332" width="6" height="6" fill="#000080" />
<rect x="172" y="332" width="6" height="6" fill="#000080" />
<rect x="182" y="332" width="6" height="6" fill="#000080" />
<rect x="202" y="332" width="6" height="6" fill="#000080" />
<rect x="222" y="332" width="6" height="6" fill="#000080" />
<rect x="242" y="332" width="6" height="6" fill="#000080" />
<rect x="272" y="332" width="6" height="6" fill="#000080" />
<rect x="302" y="332" width="6" height="6" fill="#000080" />
<rect x="322" y="332" width="6" height="6" fill="#000080" />
<rect x="332" y="332" width="6" height="6" fill="#000080" />
<rect x="2" y="342" width="6" height="6" fill="#000080" />
<rect x="22" y="342" width="6" height="6" fill="#000080" />
<rect x="32" y="342" width="6" height="6" fill="#000080" />
<rect x="42" y="342" width="6" height="6" fill="#000080" />
<rect x="62" y="342" width="6" height="6" fill="#000080" />
<rect x="82" y="342" width="6" height="6" fill="#000080" />
<rect x="92" y="342" width="6" height="6" fill="#000080" />
<rect x="102" y="342" width="6" height="6" fill="#000080" />
<rect x="122" y="342" width="6" height="6" fill="#000080" />
<rect x="152" y="342" width="6" height="6" fill="#000080" />
<rect x="162" y="342" width="6" height="6" fill="#000080" />
<rect x="202" y="342" width="6" height="6" fill="#000080" />
<rect x="212" y="342" width="6" height="6" fill="#000080" />
<rect x="232" y="342" width="6" height="6" fill="#000080" />
<rect x="242" y="342" width="6" height="6" fill="#000080" />
<rect x="262" y="342" width="6" height="6" fill="#000080" />
<rect x="272" y="342" width="6" height="6" fill="#000080" />
<rect x="302" y="342" width="6" height="6" fill="#000080" />
<rect x="312" y="342" width="6" height="6" fill="#000080" />
<rect x="322" y="342" width="6" height="6" fill="#000080" />
<rect x="332" y="342" width="6" height="6" fill="#000080" />
<rect x="342" y="342" width="6" height="6" fill="#000080" />
<rect x="352" y="342" width="6" height="6" fill="#000080" />
<rect x="2" y="352" width="6" height="6" fill="#000080" />
<rect x="62" y="352" width="6" height="6" fill="#000080" />
<rect x="92" y="352" width="6" height="6" fill="#000080" />
<rect x="102" y="352" width="6" height="6" fill="#000080" />
<rect x="122" y="352" width="6" height="6" fill="#000080" />
<rect x="132" y="352" width="6" height="6" fill="#000080" />
<rect x="142" y="352" width="6" height="6" fill="#000080" />
<rect x="152" y="352" width="6" height="6" fill="#000080" />
<rect x="162" y="352" width="6" height="6" fill="#000080" />
<rect x="182" y="352" width="6" height="6" fill="#000080" />
<rect x="192" y="352" width="6" height="6" fill="#000080" />
<rect x="202" y="352" width="6" height="6" fill="#000080" />
<rect x="252" y="352" width="6" height="6" fill="#000080" />
<rect x="262" y="352" width="6" height="6" fill="#000080" />
<rect x="312" y="352" width="6" height="6" fill="#000080" />
<rect x="332" y="352" width="6" height="6" fill="#000080" />
<rect x="342" y="352" width="6" height="6" fill="#000080" />
<rect x="2" y="362" width="6" height="6" fill="#000080" />
<rect x="12" y="362" width="6" height="6" fill="#000080" />
<rect x="22" y="362" width="6" height="6" fill="#000080" />
<rect x="32" y="362" width="6" height="6" fill="#000080" />
<rect x="42" y="362" width="6" height="6" fill="#000080" />
<rect x="52" y="362" width="6" height="6" fill="#000080" />
<rect x="62" y="362" width="6" height="6" fill="#000080" />
<rect x="112" y="362" width="6" height="6" fill="#000080" />
<rect x="162" y="362" width="6" height="6" fill="#000080" />
<rect x="182" y="362" width="6" height="6" fill="#000080" />
<rect x="202" y="362" width="6" height="6" fill="#000080" />
<rect x="212" y="362" width="6" height="6" fill="#000080" />
<rect x="222" y="362" width="6" height="6" fill="#000080" />
<rect x="252" y="362" width="6" height="6" fill="#000080" />
<rect x="262" y="362" width="6" height="6" fill="#000080" />
<rect x="292" y="362" width="6" height="6" fill="#000080" />
<rect x="302" y="362" width="6" height="6" fill="#000080" />
<rect x="312" y="362" width="6" height="6" fill="#000080" />
<rect x="322" y="362" width="6" height="6" fill="#000080" />
<rect x="332" y="362" width="6" height="6" fill="#000080" />
<rect x="342" y="362" width="6" height="6" fill="#000080" />
<rect x="352" y="362" width="6" height="6" fill="#000080" />
<rect x="362" y="362" width="6" height="6" fill="#000080" />
</svg>