<svg xmlns="http://www.w3.org/2000/svg" viewBox="0 0 370 370" width="500" height="500">
<rect width="370" height="370" fill="white" />
<circle cx="5.0" cy="5.0" r="2.5" fill="#000080" />
<circle cx="15.0" cy="5.0" r="2.5" fill="#000080" />
<circle cx="25.0" cy="5.0" r="2.5" fill="#000080" />
<circle cx="35.0" cy="5.0" r="2.5" fill="#000080" />
<circle cx="45.0" cy="5.0" r="2.5" fill="#000080" />
<circle cx="55.0" cy="5.0" r="2.5" fill="#000080" />
<circle cx="65.0" cy="5.0" r="2.5" fill="#000080" />
<circle cx="105.0" cy="5.0" r="2.5" fill="#000080" />
<circle cx="115.0" cy="5.0" r="2.5" fill="#000080" />
<circle cx="135.0" cy="5.0" r="2.5" fill="#000080" />
<circle cx="145.0" cy="5.0" r="2.5" fill="#000080" />
<circle cx="175.0" cy="5.0" r="2.5" fill="#000080" />
<circle cx="195.0" cy="5.0" r="2.5" fill="#000080" />
<circle cx="215.0" cy="5.0" r="2.5" fill="#000080" />
<circle cx="285.0" cy="5.0" r="2.5" fill="#000080" />
<circle cx="305.0" cy="5.0" r="2.5" fill="#000080" />
<circle cx="315.0" cy="5.0" r="2.5" fill="#000080" />
<circle cx="325.0" cy="5.0" r="2.5" fill="#000080" />
<circle cx="335.0" cy="5.0" r="2.5" fill="#000080" />
<circle cx="345.0" cy="5.0" r="2.5" fill="#000080" />
<circle cx="355.0" cy="5.0" r="2.5" fill="#000080" />
<circle cx="365.0" cy="5.0" r="2.5" fill="#000080" />
<circle cx="5.0" cy="15.0" r="2.5" fill="#000080" />
<circle cx="65.0" cy="15.0" r="2.5" fill="#000080" />
<circle cx="95.0" cy="15.0" r="2.5" fill="#000080" />
<circle cx="105.0" cy="15.0" r="2.5" fill="#000080" />
<circle cx="115.0" cy="15.0" r="2.5" fill="#000080" />
<circle cx="125.0" cy="15.0" r="2.5" fill="#000080" />
<circle cx="135.0" cy="15.0" r="2.5" fill="#000080" />
<circle cx="145.0" cy="15.0" r="2.5" fill="#000080" />
<circle cx="175.0" cy="15.0" r="2.5" fill="#000080" />
<circle cx="195.0" cy="15.0" r="2.5" fill="#000080" />
<circle cx="225.0" cy="15.0" r="2.5" fill="#000080" />
<circle cx="245.0" cy="15.0" r="2.5" fill="#000080" />
<circle cx="255.0" cy="15.0" r="2.5" fill="#000080" />
<circle cx="265.0" cy="15.0" r="2.5" fill="#000080" />
<circle cx="305.0" cy="15.0" r="2.5" fill="#000080" />
<circle cx="365.0" cy="15.0" r="2.5" fill="#000080" />
<circle cx="5.0" cy="25.0" r="2.5" fill="#000080" />
<circle cx="25.0" cy="25.0" r="2.5" fill="#000080" />
<circle cx="35.0" cy="25.0" r="2.5" fill="#000080" />
<circle cx="45.0" cy="25.0" r="2.5" fill="#000080" />
<circle cx="65.0" cy="25.0" r="2.5" fill="#000080" />
<circle cx="95.0" cy="25.0" r="2.5" fill="#000080" />
<circle cx="105.0" cy="25.0" r="2.5" fill="#000080" />
<circle cx="135.0" cy="25.0" r="2.5" fill="#000080" />
<circle cx="155.0" cy="25.0" r="2.5" fill="#000080" />
<circle cx="175.0" cy="25.0" r="2.5" fill="#000080" />
<circle cx="185.0" cy="25.0" r="2.5" fill="#000080" />
<circle cx="195.0" cy="25.0" r="2.5" fill="#000080" />
<circle cx="205.0" cy="25.0" r="2.5" fill="#000080" />
<circle cx="225.0" cy="25.0" r="2.5" fill="#000080" />
<circle cx="235.0" cy="25.0" r="2.5" fill="#000080" />
<circle cx="245.0" cy="25.0" r="2.5" fill="#000080" />
<circle cx="255.0" cy="25.0" r="2.5" fill="#000080" />
<circle cx="275.0" cy="25.0" r="2.5" fill="#000080" />
<circle cx="305.0" cy="25.0" r="2.5" fill="#000080" />
<circle cx="325.0" cy="25.0" r="2.5" fill="#000080" />
<circle cx="335.0" cy="25.0" r="2.5" fill="#000080" />
<circle cx="345.0" cy="25.0" r="2.5" fill="#000080" />
<circle cx="365.0" cy="25.0" r="2.5" fill="#000080" />
<circle cx="5.0" cy="35.0" r="2.5" fill="#000080" />
<circle cx="25.0" cy="35.0" r="2.5" fill="#000080" />
<circle cx="35.0" cy="35.0" r="2.5" fill="#000080" />
<circle cx="45.0" cy="35.0" r="2.5" fill="#000080" />
<circle cx="65.0" cy="35.0" r="2.5" fill="#000080" />
<circle cx="95.0" cy="35.0" r="2.5" fill="#000080" />
<circle cx="115.0" cy="35.0" r="2.5" fill="#000080" />
<circle cx="125.0" cy="35.0" r="2.5" fill="#000080" />
<circle cx="185.0" cy="35.0" r="2.5" fill="#000080" />
<circle cx="205.0" cy="35.0" r="2.5" fill="#000080" />
<circle cx="235.0" cy="35.0" r="2.5" fill="#000080" />
<circle cx="255.0" cy="35.0" r="2.5" fill="#000080" />
<circle cx="265.0" cy="35.0" r="2.5" fill="#000080" />
<circle cx="305.0" cy="35.0" r="2.5" fill="#000080" />
<circle cx="325.0" cy="35.0" r="2.5" fill="#000080" />
<circle cx="335.0" cy="35.0" r="2.5" fill="#000080" />
<circle cx="345.0" cy="35.0" r="2.5" fill="#000080" />
<circle cx="365.0" cy="35.0" r="2.5" fill="#000080" />
<circle cx="5.0" cy="45.0" r="2.5" fill="#000080" />
<circle cx="25.0" cy="45.0" r="2.5" fill="#000080" />
<circle cx="35.0" cy="45.0" r="2.5" fill="#000080" />
<rect x="40" y="40" width="10" height="10" fill="#B8860B" />
<rect x="60" y="40" width="10" height="10" fill="#B8860B" />
<rect x="80" y="40" width="10" height="10" fill="#B8860B" />
<rect x="90" y="40" width="10" height="10" fill="#B8860B" />
<rect x="100" y="40" width="10" height="10" fill="#B8860B" />
<circle cx="135.0" cy="45.0" r="2.5" fill="#000080" />
<rect x="140" y="40" width="10" height="10" fill="#000080" />
<rect x="150" y="40" width="10" height="10" fill="#000080" />
<rect x="160" y="40" width="10" height="10" fill="#000080" />
<rect x="180" y="40" width="10" height="10" fill="#000080" />
<rect x="210" y="40" width="10" height="10" fill="#000080" />
<rect x="220" y="40" width="10" height="10" fill="#000080" />
<circle cx="245.0" cy="45.0" r="2.5" fill="#000080" />
<circle cx="255.0" cy="45.0" r="2.5" fill="#000080" />
<rect x="260" y="40" width="10" height="10" fill="#B8860B" />
<rect x="270" y="40" width="10" height="10" fill="#B8860B" />
<rect x="300" y="40" width="10" height="10" fill="#B8860B" />
<rect x="320" y="40" width="10" height="10" fill="#B8860B" />
<circle cx="335.0" cy="45.0" r="2.5" fill="#000080" />
<circle cx="345.0" cy="45.0" r="2.5" fill="#000080" />
<circle cx="365.0" cy="45.0" r="2.5" fill="#000080" />
<circle cx="5.0" cy="55.0" r="2.5" fill="#000080" />
<rect x="60" y="50" width="10" height="10" fill="#B8860B" />
<rect x="100" y="50" width="10" height="10" fill="#B8860B" />
<circle cx="115.0" cy="55.0" r="2.5" fill="#000080" />
<rect x="120" y="50" width="10" height="10" fill="#000080" />
<rect x="130" y="50" width="10" height="10" fill="#000080" />
<rect x="140" y="50" width="10" height="10" fill="#000080" />
<rect x="160" y="50" width="10" height="10" fill="#000080" />
<rect x="190" y="50" width="10" height="10" fill="#000080" />
<rect x="200" y="50" width="10" height="10" fill="#000080" />
<rect x="210" y="50" width="10" height="10" fill="#000080" />
<rect x="220" y="50" width="10" height="10" fill="#000080" />
<rect x="230" y="50" width="10" height="10" fill="#000080" />
<rect x="240" y="50" width="10" height="10" fill="#000080" />
<circle cx="255.0" cy="55.0" r="2.5" fill="#000080" />
<rect x="260" y="50" width="10" height="10" fill="#B8860B" />
<rect x="300" y="50" width="10" height="10" fill="#B8860B" />
<circle cx="365.0" cy="55.0" r="2.5" fill="#000080" />
<circle cx="5.0" cy="65.0" r="2.5" fill="#000080" />
<circle cx="15.0" cy="65.0" r="2.5" fill="#000080" />
<circle cx="25.0" cy="65.0" r="2.5" fill="#000080" />
<circle cx="35.0" cy="65.0" r="2.5" fill="#000080" />
<rect x="40" y="60" width="10" height="10" fill="#B8860B" />
<rect x="50" y="60" width="10" height="10" fill="#B8860B" />
<rect x="60" y="60" width="10" height="10" fill="#B8860B" />
<rect x="80" y="60" width="10" height="10" fill="#B8860B" />
<rect x="100" y="60" width="10" height="10" fill="#B8860B" />
<rect x="120" y="60" width="10" height="10" fill="#000080" />
<rect x="140" y="60" width="10" height="10" fill="#000080" />
<rect x="160" y="60" width="10" height="10" fill="#000080" />
<rect x="180" y="60" width="10" height="10" fill="#000080" />
<rect x="200" y="60" width="10" height="10" fill="#000080" />
<rect x="220" y="60" width="10" height="10" fill="#000080" />
<rect x="240" y="60" width="10" height="10" fill="#000080" />
<rect x="260" y="60" width="10" height="10" fill="#B8860B" />
<rect x="280" y="60" width="10" height="10" fill="#B8860B" />
<rect x="300" y="60" width="10" height="10" fill="#B8860B" />
<rect x="310" y="60" width="10" height="10" fill="#B8860B" />
<rect x="320" y="60" width="10" height="10" fill="#B8860B" />
<circle cx="335.0" cy="65.0" r="2.5" fill="#000080" />
<circle cx="345.0" cy="65.0" r="2.5" fill="#000080" />
<circle cx="355.0" cy="65.0" r="2.5" fill="#000080" />
<circle cx="365.0" cy="65.0" r="2.5" fill="#000080" />
<rect x="80" y="70" width="10" height="10" fill="#B8860B" />
<rect x="90" y="70" width="10" height="10" fill="#B8860B" />
<rect x="110" y="70" width="10" height="10" fill="#000080" />
<rect x="120" y="70" width="10" height="10" fill="#000080" />
<rect x="130" y="70" width="10" height="10" fill="#000080" />
<rect x="160" y="70" width="10" height="10" fill="#000080" />
<rect x="210" y="70" width="10" height="10" fill="#000080" />
<rect x="230" y="70" width="10" height="10" fill="#000080" />
<rect x="270" y="70" width="10" height="10" fill="#B8860B" />
<rect x="280" y="70" width="10" height="10" fill="#B8860B" />
<circle cx="25.0" cy="85.0" r="2.5" fill="#000080" />
<circle cx="35.0" cy="85.0" r="2.5" fill="#000080" />
<rect x="60" y="80" width="10" height="10" fill="#B8860B" />
<rect x="70" y="80" width="10" height="10" fill="#B8860B" />
<rect x="80" y="80" width="10" height="10" fill="#B8860B" />
<rect x="120" y="80" width="10" height="10" fill="#000080" />
<rect x="150" y="80" width="10" height="10" fill="#000080" />
<circle cx="175.0" cy="85.0" r="2.5" fill="#000080" />
<circle cx="195.0" cy="85.0" r="2.5" fill="#000080" />
<rect x="200" y="80" width="10" height="10" fill="#000080" />
<rect x="250" y="80" width="10" height="10" fill="#000080" />
<rect x="270" y="80" width="10" height="10" fill="#B8860B" />
<rect x="280" y="80" width="10" height="10" fill="#B8860B" />
<rect x="290" y="80" width="10" height="10" fill="#B8860B" />
<rect x="300" y="80" width="10" height="10" fill="#B8860B" />
<rect x="320" y="80" width="10" height="10" fill="#B8860B" />
<circle cx="5.0" cy="95.0" r="2.5" fill="#000080" />
<circle cx="15.0" cy="95.0" r="2.5" fill="#000080" />
<circle cx="25.0" cy="95.0" r="2.5" fill="#000080" />
<circle cx="35.0" cy="95.0" r="2.5" fill="#000080" />
<rect x="50" y="90" width="10" height="10" fill="#B8860B" />
<rect x="70" y="90" width="10" height="10" fill="#B8860B" />
<rect x="100" y="90" width="10" height="10" fill="#B8860B" />
<rect x="110" y="90" width="10" height="10" fill="#000080" />
<rect x="120" y="90" width="10" height="10" fill="#000080" />
<rect x="140" y="90" width="10" height="10" fill="#000080" />
<circle cx="175.0" cy="95.0" r="2.5" fill="#000080" />
<rect x="250" y="90" width="10" height="10" fill="#000080" />
<rect x="280" y="90" width="10" height="10" fill="#B8860B" />
<circle cx="345.0" cy="95.0" r="2.5" fill="#000080" />
<circle cx="35.0" cy="105.0" r="2.5" fill="#000080" />
<rect x="40" y="100" width="10" height="10" fill="#B8860B" />
<rect x="60" y="100" width="10" height="10" fill="#B8860B" />
<rect x="70" y="100" width="10" height="10" fill="#B8860B" />
<rect x="90" y="100" width="10" height="10" fill="#B8860B" />
<rect x="110" y="100" width="10" height="10" fill="#000080" />
<rect x="120" y="100" width="10" height="10" fill="#000080" />
<rect x="130" y="100" width="10" height="10" fill="#000080" />
<rect x="140" y="100" width="10" height="10" fill="#000080" />
<rect x="160" y="100" width="10" height="10" fill="#000080" />
<rect x="170" y="100" width="10" height="10" fill="#000080" />
<rect x="180" y="100" width="10" height="10" fill="#000080" />
<rect x="190" y="100" width="10" height="10" fill="#000080" />
<rect x="210" y="100" width="10" height="10" fill="#000080" />
<rect x="230" y="100" width="10" height="10" fill="#000080" />
<rect x="240" y="100" width="10" height="10" fill="#000080" />
<rect x="250" y="100" width="10" height="10" fill="#000080" />
<rect x="280" y="100" width="10" height="10" fill="#B8860B" />
<rect x="290" y="100" width="10" height="10" fill="#B8860B" />
<rect x="320" y="100" width="10" height="10" fill="#B8860B" />
<circle cx="335.0" cy="105.0" r="2.5" fill="#000080" />
<circle cx="345.0" cy="105.0" r="2.5" fill="#000080" />
<circle cx="25.0" cy="115.0" r="2.5" fill="#000080" />
<rect x="100" y="110" width="10" height="10" fill="#000080" />
<rect x="120" y="110" width="10" height="10" fill="#000080" />
<rect x="180" y="110" width="10" height="10" fill="#000080" />
<rect x="210" y="110" width="10" height="10" fill="#000080" />
<rect x="220" y="110" width="10" height="10" fill="#000080" />
<rect x="230" y="110" width="10" height="10" fill="#000080" />
<rect x="250" y="110" width="10" height="10" fill="#000080" />
<rect x="260" y="110" width="10" height="10" fill="#000080" />
<rect x="270" y="110" width="10" height="10" fill="#000080" />
<circle cx="325.0" cy="115.0" r="2.5" fill="#000080" />
<circle cx="335.0" cy="115.0" r="2.5" fill="#000080" />
<circle cx="345.0" cy="115.0" r="2.5" fill="#000080" />
<circle cx="365.0" cy="115.0" r="2.5" fill="#000080" />
<circle cx="15.0" cy="125.0" r="2.5" fill="#000080" />
<circle cx="65.0" cy="125.0" r="2.5" fill="#000080" />
<circle cx="85.0" cy="125.0" r="2.5" fill="#000080" />
<rect x="100" y="120" width="10" height="10" fill="#000080" />
<rect x="110" y="120" width="10" height="10" fill="#000080" />
<rect x="130" y="120" width="10" height="10" fill="#000080" />
<rect x="150" y="120" width="10" height="10" fill="#000080" />
<rect x="170" y="120" width="10" height="10" fill="#000080" />
<rect x="200" y="120" width="10" height="10" fill="#000080" />
<rect x="220" y="120" width="10" height="10" fill="#000080" />
<rect x="230" y="120" width="10" height="10" fill="#000080" />
<rect x="250" y="120" width="10" height="10" fill="#000080" />
<rect x="260" y="120" width="10" height="10" fill="#000080" />
<circle cx="285.0" cy="125.0" r="2.5" fill="#000080" />
<circle cx="295.0" cy="125.0" r="2.5" fill="#000080" />
<circle cx="305.0" cy="125.0" r="2.5" fill="#000080" />
<circle cx="325.0" cy="125.0" r="2.5" fill="#000080" />
<circle cx="335.0" cy="125.0" r="2.5" fill="#000080" />
<circle cx="345.0" cy="125.0" r="2.5" fill="#000080" />
<circle cx="365.0" cy="125.0" r="2.5" fill="#000080" />
<circle cx="5.0" cy="135.0" r="2.5" fill="#000080" />
<circle cx="15.0" cy="135.0" r="2.5" fill="#000080" />
<circle cx="35.0" cy="135.0" r="2.5" fill="#000080" />
<circle cx="75.0" cy="135.0" r="2.5" fill="#000080" />
<circle cx="95.0" cy="135.0" r="2.5" fill="#000080" />
<rect x="120" y="130" width="10" height="10" fill="#000080" />
<rect x="140" y="130" width="10" height="10" fill="#000080" />
<rect x="150" y="130" width="10" height="10" fill="#000080" />
<rect x="160" y="130" width="10" height="10" fill="#000080" />
<rect x="170" y="130" width="10" height="10" fill="#000080" />
<rect x="180" y="130" width="10" height="10" fill="#000080" />
<rect x="190" y="130" width="10" height="10" fill="#000080" />
<rect x="200" y="130" width="10" height="10" fill="#000080" />
<rect x="220" y="130" width="10" height="10" fill="#000080" />
<rect x="230" y="130" width="10" height="10" fill="#000080" />
<circle cx="275.0" cy="135.0" r="2.5" fill="#000080" />
<circle cx="285.0" cy="135.0" r="2.5" fill="#000080" />
<circle cx="305.0" cy="135.0" r="2.5" fill="#000080" />
<circle cx="315.0" cy="135.0" r="2.5" fill="#000080" />
<circle cx="325.0" cy="135.0" r="2.5" fill="#000080" />
<circle cx="345.0" cy="135.0" r="2.5" fill="#000080" />
<circle cx="355.0" cy="135.0" r="2.5" fill="#000080" />
<circle cx="365.0" cy="135.0" r="2.5" fill="#000080" />
<circle cx="5.0" cy="145.0" r="2.5" fill="#000080" />
<circle cx="55.0" cy="145.0" r="2.5" fill="#000080" />
<rect x="60" y="140" width="10" height="10" fill="#000080" />
<rect x="70" y="140" width="10" height="10" fill="#000080" />
<rect x="80" y="140" width="10" height="10" fill="#000080" />
<rect x="120" y="140" width="10" height="10" fill="#000080" />
<rect x="130" y="140" width="10" height="10" fill="#000080" />
<rect x="140" y="140" width="10" height="10" fill="#000080" />
<rect x="210" y="140" width="10" height="10" fill="#000080" />
<rect x="260" y="140" width="10" height="10" fill="#000080" />
<rect x="290" y="140" width="10" height="10" fill="#000080" />
<rect x="300" y="140" width="10" height="10" fill="#000080" />
<circle cx="345.0" cy="145.0" r="2.5" fill="#000080" />
<circle cx="5.0" cy="155.0" r="2.5" fill="#000080" />
<circle cx="15.0" cy="155.0" r="2.5" fill="#000080" />
<circle cx="25.0" cy="155.0" r="2.5" fill="#000080" />
<circle cx="35.0" cy="155.0" r="2.5" fill="#000080" />
<circle cx="45.0" cy="155.0" r="2.5" fill="#000080" />
<rect x="80" y="150" width="10" height="10" fill="#000080" />
<rect x="100" y="150" width="10" height="10" fill="#000080" />
<rect x="110" y="150" width="10" height="10" fill="#000080" />
<rect x="130" y="150" width="10" height="10" fill="#000080" />
<rect x="140" y="150" width="10" height="10" fill="#000080" />
<rect x="150" y="150" width="10" height="10" fill="#000080" />
<rect x="160" y="150" width="10" height="10" fill="#000080" />
<rect x="180" y="150" width="10" height="10" fill="#000080" />
<rect x="210" y="150" width="10" height="10" fill="#000080" />
<rect x="220" y="150" width="10" height="10" fill="#000080" />
<rect x="230" y="150" width="10" height="10" fill="#000080" />
<rect x="260" y="150" width="10" height="10" fill="#000080" />
<rect x="270" y="150" width="10" height="10" fill="#000080" />
<rect x="280" y="150" width="10" height="10" fill="#000080" />
<circle cx="325.0" cy="155.0" r="2.5" fill="#000080" />
<circle cx="355.0" cy="155.0" r="2.5" fill="#000080" />
<circle cx="15.0" cy="165.0" r="2.5" fill="#000080" />
<circle cx="25.0" cy="165.0" r="2.5" fill="#000080" />
<rect x="60" y="160" width="10" height="10" fill="#000080" />
<rect x="80" y="160" width="10" height="10" fill="#000080" />
<rect x="90" y="160" width="10" height="10" fill="#000080" />
<rect x="100" y="160" width="10" height="10" fill="#000080" />
<rect x="160" y="160" width="10" height="10" fill="#000080" />
<rect x="180" y="160" width="10" height="10" fill="#000080" />
<rect x="200" y="160" width="10" height="10" fill="#000080" />
<rect x="250" y="160" width="10" height="10" fill="#000080" />
<circle cx="335.0" cy="165.0" r="2.5" fill="#000080" />
<circle cx="345.0" cy="165.0" r="2.5" fill="#000080" />
<circle cx="5.0" cy="175.0" r="2.5" fill="#000080" />
<circle cx="15.0" cy="175.0" r="2.5" fill="#000080" />
<circle cx="25.0" cy="175.0" r="2.5" fill="#000080" />
<circle cx="35.0" cy="175.0" r="2.5" fill="#000080" />
<circle cx="45.0" cy="175.0" r="2.5" fill="#000080" />
<rect x="50" y="170" width="10" height="10" fill="#000080" />
<rect x="70" y="170" width="10" height="10" fill="#000080" />
<rect x="110" y="170" width="10" height="10" fill="#000080" />
<rect x="120" y="170" width="10" height="10" fill="#000080" />
<rect x="140" y="170" width="10" height="10" fill="#000080" />
<rect x="150" y="170" width="10" height="10" fill="#000080" />
<rect x="160" y="170" width="10" height="10" fill="#000080" />
<rect x="170" y="170" width="10" height="10" fill="#000080" />
<rect x="200" y="170" width="10" height="10" fill="#000080" />
<rect x="220" y="170" width="10" height="10" fill="#000080" />
<rect x="240" y="170" width="10" height="10" fill="#000080" />
<rect x="270" y="170" width="10" height="10" fill="#000080" />
<rect x="300" y="170" width="10" height="10" fill="#000080" />
<circle cx="335.0" cy="175.0" r="2.5" fill="#000080" />
<circle cx="365.0" cy="175.0" r="2.5" fill="#000080" />
<circle cx="35.0" cy="185.0" r="2.5" fill="#000080" />
<circle cx="45.0" cy="185.0" r="2.5" fill="#000080" />
<rect x="60" y="180" width="10" height="10" fill="#000080" />
<rect x="100" y="180" width="10" height="10" fill="#000080" />
<rect x="130" y="180" width="10" height="10" fill="#000080" />
<rect x="140" y="180" width="10" height="10" fill="#000080" />
<rect x="160" y="180" width="10" height="10" fill="#000080" />
<rect x="180" y="180" width="10" height="10" fill="#000080" />
<rect x="200" y="180" width="10" height="10" fill="#000080" />
<rect x="240" y="180" width="10" height="10" fill="#000080" />
<rect x="250" y="180" width="10" height="10" fill="#000080" />
<rect x="260" y="180" width="10" height="10" fill="#000080" />
<rect x="270" y="180" width="10" height="10" fill="#000080" />
<rect x="280" y="180" width="10" height="10" fill="#000080" />
<rect x="290" y="180" width="10" height="10" fill="#000080" />
<circle cx="315.0" cy="185.0" r="2.5" fill="#000080" />
<circle cx="335.0" cy="185.0" r="2.5" fill="#000080" />
<circle cx="345.0" cy="185.0" r="2.5" fill="#000080" />
<circle cx="355.0" cy="185.0" r="2.5" fill="#000080" />
<circle cx="365.0" cy="185.0" r="2.5" fill="#000080" />
<circle cx="35.0" cy="195.0" r="2.5" fill="#000080" />
<circle cx="55.0" cy="195.0" r="2.5" fill="#000080" />
<circle cx="75.0" cy="195.0" r="2.5" fill="#000080" />
<circle cx="95.0" cy="195.0" r="2.5" fill="#000080" />
<rect x="120" y="190" width="10" height="10" fill="#000080" />
<rect x="150" y="190" width="10" height="10" fill="#000080" />
<rect x="170" y="190" width="10" height="10" fill="#000080" />
<rect x="200" y="190" width="10" height="10" fill="#000080" />
<rect x="220" y="190" width="10" height="10" fill="#000080" />
<rect x="260" y="190" width="10" height="10" fill="#000080" />
<circle cx="295.0" cy="195.0" r="2.5" fill="#000080" />
<circle cx="305.0" cy="195.0" r="2.5" fill="#000080" />
<circle cx="325.0" cy="195.0" r="2.5" fill="#000080" />
<circle cx="335.0" cy="195.0" r="2.5" fill="#000080" />
<circle cx="5.0" cy="205.0" r="2.5" fill="#000080" />
<circle cx="15.0" cy="205.0" r="2.5" fill="#000080" />
<circle cx="25.0" cy="205.0" r="2.5" fill="#000080" />
<circle cx="35.0" cy="205.0" r="2.5" fill="#000080" />
<circle cx="55.0" cy="205.0" r="2.5" fill="#000080" />
<circle cx="65.0" cy="205.0" r="2.5" fill="#000080" />
<circle cx="75.0" cy="205.0" r="2.5" fill="#000080" />
<circle cx="95.0" cy="205.0" r="2.5" fill="#000080" />
<rect x="100" y="200" width="10" height="10" fill="#000080" />
<rect x="110" y="200" width="10" height="10" fill="#000080" />
<rect x="120" y="200" width="10" height="10" fill="#000080" />
<rect x="130" y="200" width="10" height="10" fill="#000080" />
<rect x="150" y="200" width="10" height="10" fill="#000080" />
<rect x="160" y="200" width="10" height="10" fill="#000080" />
<rect x="170" y="200" width="10" height="10" fill="#000080" />
<rect x="190" y="200" width="10" height="10" fill="#000080" />
<rect x="200" y="200" width="10" height="10" fill="#000080" />
<rect x="220" y="200" width="10" height="10" fill="#000080" />
<rect x="260" y="200" width="10" height="10" fill="#000080" />
<circle cx="285.0" cy="205.0" r="2.5" fill="#000080" />
<circle cx="295.0" cy="205.0" r="2.5" fill="#000080" />
<circle cx="325.0" cy="205.0" r="2.5" fill="#000080" />
<circle cx="365.0" cy="205.0" r="2.5" fill="#000080" />
<circle cx="5.0" cy="215.0" r="2.5" fill="#000080" />
<circle cx="25.0" cy="215.0" r="2.5" fill="#000080" />
<circle cx="45.0" cy="215.0" r="2.5" fill="#000080" />
<circle cx="75.0" cy="215.0" r="2.5" fill="#000080" />
<circle cx="85.0" cy="215.0" r="2.5" fill="#000080" />
<rect x="100" y="210" width="10" height="10" fill="#000080" />
<rect x="120" y="210" width="10" height="10" fill="#000080" />
<rect x="130" y="210" width="10" height="10" fill="#000080" />
<rect x="140" y="210" width="10" height="10" fill="#000080" />
<rect x="160" y="210" width="10" height="10" fill="#000080" />
<rect x="170" y="210" width="10" height="10" fill="#000080" />
<rect x="180" y="210" width="10" height="10" fill="#000080" />
<rect x="190" y="210" width="10" height="10" fill="#000080" />
<rect x="200" y="210" width="10" height="10" fill="#000080" />
<rect x="250" y="210" width="10" height="10" fill="#000080" />
<circle cx="295.0" cy="215.0" r="2.5" fill="#000080" />
<circle cx="315.0" cy="215.0" r="2.5" fill="#000080" />
<circle cx="335.0" cy="215.0" r="2.5" fill="#000080" />
<circle cx="35.0" cy="225.0" r="2.5" fill="#000080" />
<circle cx="55.0" cy="225.0" r="2.5" fill="#000080" />
<circle cx="65.0" cy="225.0" r="2.5" fill="#000080" />
<circle cx="95.0" cy="225.0" r="2.5" fill="#000080" />
<rect x="100" y="220" width="10" height="10" fill="#000080" />
<rect x="120" y="220" width="10" height="10" fill="#000080" />
<rect x="130" y="220" width="10" height="10" fill="#000080" />
<rect x="150" y="220" width="10" height="10" fill="#000080" />
<rect x="160" y="220" width="10" height="10" fill="#000080" />
<rect x="170" y="220" width="10" height="10" fill="#000080" />
<rect x="180" y="220" width="10" height="10" fill="#000080" />
<rect x="190" y="220" width="10" height="10" fill="#000080" />
<rect x="220" y="220" width="10" height="10" fill="#000080" />
<rect x="240" y="220" width="10" height="10" fill="#000080" />
<rect x="250" y="220" width="10" height="10" fill="#000080" />
<circle cx="305.0" cy="225.0" r="2.5" fill="#000080" />
<circle cx="325.0" cy="225.0" r="2.5" fill="#000080" />
<circle cx="335.0" cy="225.0" r="2.5" fill="#000080" />
<circle cx="5.0" cy="235.0" r="2.5" fill="#000080" />
<circle cx="15.0" cy="235.0" r="2.5" fill="#000080" />
<circle cx="25.0" cy="235.0" r="2.5" fill="#000080" />
<circle cx="35.0" cy="235.0" r="2.5" fill="#000080" />
<circle cx="85.0" cy="235.0" r="2.5" fill="#000080" />
<circle cx="95.0" cy="235.0" r="2.5" fill="#000080" />
<rect x="100" y="230" width="10" height="10" fill="#000080" />
<rect x="110" y="230" width="10" height="10" fill="#000080" />
<rect x="130" y="230" width="10" height="10" fill="#000080" />
<rect x="150" y="230" width="10" height="10" fill="#000080" />
<rect x="160" y="230" width="10" height="10" fill="#000080" />
<rect x="180" y="230" width="10" height="10" fill="#000080" />
<rect x="190" y="230" width="10" height="10" fill="#000080" />
<rect x="200" y="230" width="10" height="10" fill="#000080" />
<rect x="210" y="230" width="10" height="10" fill="#000080" />
<rect x="230" y="230" width="10" height="10" fill="#000080" />
<circle cx="275.0" cy="235.0" r="2.5" fill="#000080" />
<circle cx="285.0" cy="235.0" r="2.5" fill="#000080" />
<circle cx="305.0" cy="235.0" r="2.5" fill="#000080" />
<circle cx="335.0" cy="235.0" r="2.5" fill="#000080" />
<circle cx="345.0" cy="235.0" r="2.5" fill="#000080" />
<circle cx="355.0" cy="235.0" r="2.5" fill="#000080" />
<circle cx="15.0" cy="245.0" r="2.5" fill="#000080" />
<circle cx="25.0" cy="245.0" r="2.5" fill="#000080" />
<circle cx="35.0" cy="245.0" r="2.5" fill="#000080" />
<circle cx="45.0" cy="245.0" r="2.5" fill="#000080" />
<circle cx="65.0" cy="245.0" r="2.5" fill="#000080" />
<circle cx="75.0" cy="245.0" r="2.5" fill="#000080" />
<rect x="100" y="240" width="10" height="10" fill="#000080" />
<rect x="110" y="240" width="10" height="10" fill="#000080" />
<rect x="120" y="240" width="10" height="10" fill="#000080" />
<rect x="130" y="240" width="10" height="10" fill="#000080" />
<rect x="150" y="240" width="10" height="10" fill="#000080" />
<rect x="190" y="240" width="10" height="10" fill="#000080" />
<rect x="200" y="240" width="10" height="10" fill="#000080" />
<rect x="210" y="240" width="10" height="10" fill="#000080" />
<rect x="230" y="240" width="10" height="10" fill="#000080" />
<rect x="240" y="240" width="10" height="10" fill="#000080" />
<rect x="260" y="240" width="10" height="10" fill="#000080" />
<circle cx="295.0" cy="245.0" r="2.5" fill="#000080" />
<circle cx="305.0" cy="245.0" r="2.5" fill="#000080" />
<circle cx="325.0" cy="245.0" r="2.5" fill="#000080" />
<circle cx="335.0" cy="245.0" r="2.5" fill="#000080" />
<circle cx="345.0" cy="245.0" r="2.5" fill="#000080" />
<circle cx="25.0" cy="255.0" r="2.5" fill="#000080" />
<circle cx="35.0" cy="255.0" r="2.5" fill="#000080" />
<circle cx="45.0" cy="255.0" r="2.5" fill="#000080" />
<circle cx="75.0" cy="255.0" r="2.5" fill="#000080" />
<rect x="110" y="250" width="10" height="10" fill="#000080" />
<rect x="140" y="250" width="10" height="10" fill="#000080" />
<rect x="150" y="250" width="10" height="10" fill="#000080" />
<rect x="200" y="250" width="10" height="10" fill="#000080" />
<rect x="210" y="250" width="10" height="10" fill="#000080" />
<rect x="220" y="250" width="10" height="10" fill="#000080" />
<rect x="230" y="250" width="10" height="10" fill="#000080" />
<rect x="240" y="250" width="10" height="10" fill="#000080" />
<rect x="260" y="250" width="10" height="10" fill="#000080" />
<rect x="270" y="250" width="10" height="10" fill="#000080" />
<rect x="280" y="250" width="10" height="10" fill="#000080" />
<circle cx="295.0" cy="255.0" r="2.5" fill="#000080" />
<circle cx="305.0" cy="255.0" r="2.5" fill="#000080" />
<circle cx="315.0" cy="255.0" r="2.5" fill="#000080" />
<circle cx="325.0" cy="255.0" r="2.5" fill="#000080" />
<circle cx="335.0" cy="255.0" r="2.5" fill="#000080" />
<circle cx="345.0" cy="255.0" r="2.5" fill="#000080" />
<circle cx="355.0" cy="255.0" r="2.5" fill="#000080" />
<circle cx="365.0" cy="255.0" r="2.5" fill="#000080" />
<circle cx="15.0" cy="265.0" r="2.5" fill="#000080" />
<circle cx="25.0" cy="265.0" r="2.5" fill="#000080" />
<rect x="40" y="260" width="10" height="10" fill="#B8860B" />
<rect x="60" y="260" width="10" height="10" fill="#B8860B" />
<rect x="70" y="260" width="10" height="10" fill="#B8860B" />
<rect x="130" y="260" width="10" height="10" fill="#000080" />
<rect x="140" y="260" width="10" height="10" fill="#000080" />
<rect x="160" y="260" width="10" height="10" fill="#000080" />
<rect x="180" y="260" width="10" height="10" fill="#000080" />
<rect x="190" y="260" width="10" height="10" fill="#000080" />
<rect x="200" y="260" width="10" height="10" fill="#000080" />
<rect x="220" y="260" width="10" height="10" fill="#000080" />
<rect x="230" y="260" width="10" height="10" fill="#000080" />
<rect x="260" y="260" width="10" height="10" fill="#000080" />
<circle cx="355.0" cy="265.0" r="2.5" fill="#000080" />
<circle cx="5.0" cy="275.0" r="2.5" fill="#000080" />
<circle cx="25.0" cy="275.0" r="2.5" fill="#000080" />
<circle cx="35.0" cy="275.0" r="2.5" fill="#000080" />
<rect x="50" y="270" width="10" height="10" fill="#B8860B" />
<rect x="70" y="270" width="10" height="10" fill="#B8860B" />
<rect x="90" y="270" width="10" height="10" fill="#B8860B" />
<rect x="130" y="270" width="10" height="10" fill="#000080" />
<rect x="140" y="270" width="10" height="10" fill="#000080" />
<rect x="150" y="270" width="10" height="10" fill="#000080" />
<rect x="160" y="270" width="10" height="10" fill="#000080" />
<rect x="170" y="270" width="10" height="10" fill="#000080" />
<rect x="180" y="270" width="10" height="10" fill="#000080" />
<rect x="210" y="270" width="10" height="10" fill="#000080" />
<rect x="230" y="270" width="10" height="10" fill="#000080" />
<rect x="260" y="270" width="10" height="10" fill="#000080" />
<circle cx="295.0" cy="275.0" r="2.5" fill="#000080" />
<circle cx="355.0" cy="275.0" r="2.5" fill="#000080" />
<circle cx="35.0" cy="285.0" r="2.5" fill="#000080" />
<rect x="40" y="280" width="10" height="10" fill="#B8860B" />
<rect x="60" y="280" width="10" height="10" fill="#B8860B" />
<rect x="80" y="280" width="10" height="10" fill="#B8860B" />
<rect x="90" y="280" width="10" height="10" fill="#B8860B" />
<rect x="100" y="280" width="10" height="10" fill="#B8860B" />
<rect x="130" y="280" width="10" height="10" fill="#000080" />
<rect x="140" y="280" width="10" height="10" fill="#000080" />
<rect x="160" y="280" width="10" height="10" fill="#000080" />
<rect x="170" y="280" width="10" height="10" fill="#000080" />
<rect x="210" y="280" width="10" height="10" fill="#000080" />
<rect x="220" y="280" width="10" height="10" fill="#000080" />
<rect x="250" y="280" width="10" height="10" fill="#000080" />
<rect x="280" y="280" width="10" height="10" fill="#000080" />
<circle cx="295.0" cy="285.0" r="2.5" fill="#000080" />
<circle cx="305.0" cy="285.0" r="2.5" fill="#000080" />
<circle cx="315.0" cy="285.0" r="2.5" fill="#000080" />
<circle cx="325.0" cy="285.0" r="2.5" fill="#000080" />
<circle cx="345.0" cy="285.0" r="2.5" fill="#000080" />
<circle cx="365.0" cy="285.0" r="2.5" fill="#000080" />
<rect x="80" y="290" width="10" height="10" fill="#B8860B" />
<rect x="90" y="290" width="10" height="10" fill="#B8860B" />
<rect x="100" y="290" width="10" height="10" fill="#B8860B" />
<rect x="110" y="290" width="10" height="10" fill="#000080" />
<rect x="120" y="290" width="10" height="10" fill="#000080" />
<rect x="150" y="290" width="10" height="10" fill="#000080" />
<rect x="160" y="290" width="10" height="10" fill="#000080" />
<rect x="190" y="290" width="10" height="10" fill="#000080" />
<rect x="200" y="290" width="10" height="10" fill="#000080" />
<rect x="230" y="290" width="10" height="10" fill="#000080" />
<rect x="240" y="290" width="10" height="10" fill="#000080" />
<rect x="260" y="290" width="10" height="10" fill="#000080" />
<rect x="280" y="290" width="10" height="10" fill="#000080" />
<circle cx="325.0" cy="295.0" r="2.5" fill="#000080" />
<circle cx="335.0" cy="295.0" r="2.5" fill="#000080" />
<circle cx="345.0" cy="295.0" r="2.5" fill="#000080" />
<circle cx="355.0" cy="295.0" r="2.5" fill="#000080" />
<circle cx="365.0" cy="295.0" r="2.5" fill="#000080" />
<circle cx="5.0" cy="305.0" r="2.5" fill="#000080" />
<circle cx="15.0" cy="305.0" r="2.5" fill="#000080" />
<circle cx="25.0" cy="305.0" r="2.5" fill="#000080" />
<circle cx="35.0" cy="305.0" r="2.5" fill="#000080" />
<rect x="40" y="300" width="10" height="10" fill="#B8860B" />
<rect x="50" y="300" width="10" height="10" fill="#B8860B" />
<rect x="60" y="300" width="10" height="10" fill="#B8860B" />
<rect x="80" y="300" width="10" height="10" fill="#B8860B" />
<rect x="100" y="300" width="10" height="10" fill="#B8860B" />
<rect x="110" y="300" width="10" height="10" fill="#000080" />
<rect x="120" y="300" width="10" height="10" fill="#000080" />
<rect x="130" y="300" width="10" height="10" fill="#000080" />
<rect x="160" y="300" width="10" height="10" fill="#000080" />
<rect x="190" y="300" width="10" height="10" fill="#000080" />
<rect x="200" y="300" width="10" height="10" fill="#000080" />
<rect x="210" y="300" width="10" height="10" fill="#000080" />
<rect x="220" y="300" width="10" height="10" fill="#000080" />
<rect x="240" y="300" width="10" height="10" fill="#000080" />
<rect x="260" y="300" width="10" height="10" fill="#000080" />
<rect x="280" y="300" width="10" height="10" fill="#000080" />
<rect x="300" y="300" width="10" height="10" fill="#000080" />
<circle cx="325.0" cy="305.0" r="2.5" fill="#000080" />
<circle cx="335.0" cy="305.0" r="2.5" fill="#000080" />
<circle cx="355.0" cy="305.0" r="2.5" fill="#000080" />
<circle cx="365.0" cy="305.0" r="2.5" fill="#000080" />
<circle cx="5.0" cy="315.0" r="2.5" fill="#000080" />
<rect x="60" y="310" width="10" height="10" fill="#B8860B" />
<rect x="100" y="310" width="10" height="10" fill="#B8860B" />
<rect x="120" y="310" width="10" height="10" fill="#000080" />
<rect x="140" y="310" width="10" height="10" fill="#000080" />
<rect x="170" y="310" width="10" height="10" fill="#000080" />
<rect x="180" y="310" width="10" height="10" fill="#000080" />
<rect x="190" y="310" width="10" height="10" fill="#000080" />
<rect x="230" y="310" width="10" height="10" fill="#000080" />
<rect x="240" y="310" width="10" height="10" fill="#000080" />
<rect x="260" y="310" width="10" height="10" fill="#000080" />
<rect x="270" y="310" width="10" height="10" fill="#000080" />
<rect x="280" y="310" width="10" height="10" fill="#000080" />
<circle cx="325.0" cy="315.0" r="2.5" fill="#000080" />
<circle cx="335.0" cy="315.0" r="2.5" fill="#000080" />
<circle cx="365.0" cy="315.0" r="2.5" fill="#000080" />
<circle cx="5.0" cy="325.0" r="2.5" fill="#000080" />
<circle cx="25.0" cy="325.0" r="2.5" fill="#000080" />
<circle cx="35.0" cy="325.0" r="2.5" fill="#000080" />
<rect x="40" y="320" width="10" height="10" fill="#B8860B" />
<rect x="60" y="320" width="10" height="10" fill="#B8860B" />
<rect x="90" y="320" width="10" height="10" fill="#B8860B" />
<rect x="110" y="320" width="10" height="10" fill="#000080" />
<rect x="120" y="320" width="10" height="10" fill="#000080" />
<rect x="140" y="320" width="10" height="10" fill="#000080" />
<rect x="150" y="320" width="10" height="10" fill="#000080" />
<rect x="190" y="320" width="10" height="10" fill="#000080" />
<rect x="200" y="320" width="10" height="10" fill="#000080" />
<rect x="210" y="320" width="10" height="10" fill="#000080" />
<rect x="240" y="320" width="10" height="10" fill="#000080" />
<rect x="260" y="320" width="10" height="10" fill="#000080" />
<rect x="280" y="320" width="10" height="10" fill="#000080" />
<rect x="290" y="320" width="10" height="10" fill="#000080" />
<rect x="300" y="320" width="10" height="10" fill="#000080" />
<rect x="310" y="320" width="10" height="10" fill="#000080" />
<rect x="320" y="320" width="10" height="10" fill="#000080" />
<circle cx="335.0" cy="325.0" r="2.5" fill="#000080" />
<circle cx="355.0" cy="325.0" r="2.5" fill="#000080" />
<circle cx="5.0" cy="335.0" r="2.5" fill="#000080" />
<circle cx="25.0" cy="335.0" r="2.5" fill="#000080" />
<circle cx="35.0" cy="335.0" r="2.5" fill="#000080" />
<circle cx="45.0" cy="335.0" r="2.5" fill="#000080" />
<circle cx="65.0" cy="335.0" r="2.5" fill="#000080" />
<circle cx="85.0" cy="335.0" r="2.5" fill="#000080" />
<circle cx="95.0" cy="335.0" r="2.5" fill="#000080" />
<circle cx="105.0" cy="335.0" r="2.5" fill="#000080" />
<circle cx="115.0" cy="335.0" r="2.5" fill="#000080" />
<circle cx="145.0" cy="335.0" r="2.5" fill="#000080" />
<circle cx="155.0" cy="335.0" r="2.5" fill="#000080" />
<circle cx="165.0" cy="335.0" r="2.5" fill="#000080" />
<circle cx="175.0" cy="335.0" r="2.5" fill="#000080" />
<circle cx="185.0" cy="335.0" r="2.5" fill="#000080" />
<circle cx="205.0" cy="335.0" r="2.5" fill="#000080" />
<circle cx="225.0" cy="335.0" r="2.5" fill="#000080" />
<circle cx="245.0" cy="335.0" r="2.5" fill="#000080" />
<circle cx="275.0" cy="335.0" r="2.5" fill="#000080" />
<circle cx="305.0" cy="335.0" r="2.5" fill="#000080" />
<circle cx="325.0" cy="335.0" r="2.5" fill="#000080" />
<circle cx="335.0" cy="335.0" r="2.5" fill="#000080" />
<circle cx="5.0" cy="345.0" r="2.5" fill="#000080" />
<circle cx="25.0" cy="345.0" r="2.5" fill="#000080" />
<circle cx="35.0" cy="345.0" r="2.5" fill="#000080" />
<circle cx="45.0" cy="345.0" r="2.5" fill="#000080" />
<circle cx="65.0" cy="345.0" r="2.5" fill="#000080" />
<circle cx="85.0" cy="345.0" r="2.5" fill="#000080" />
<circle cx="95.0" cy="345.0" r="2.5" fill="#000080" />
<circle cx="105.0" cy="345.0" r="2.5" fill="#000080" />
<circle cx="125.0" cy="345.0" r="2.5" fill="#000080" />
<circle cx="155.0" cy="345.0" r="2.5" fill="#000080" />
<circle cx="165.0" cy="345.0" r="2.5" fill="#000080" />
<circle cx="205.0" cy="345.0" r="2.5" fill="#000080" />
<circle cx="215.0" cy="345.0" r="2.5" fill="#000080" />
<circle cx="235.0" cy="345.0" r="2.5" fill="#000080" />
<circle cx="245.0" cy="345.0" r="2.5" fill="#000080" />
<circle cx="265.0" cy="345.0" r="2.5" fill="#000080" />
<circle cx="275.0" cy="345.0" r="2.5" fill="#000080" />
<circle cx="305.0" cy="345.0" r="2.5" fill="#000080" />
<circle cx="315.0" cy="345.0" r="2.5" fill="#000080" />
<circle cx="325.0" cy="345.0" r="2.5" fill="#000080" />
<circle cx="335.0" cy="345.0" r="2.5" fill="#000080" />
<circle cx="345.0" cy="345.0" r="2.5" fill="#000080" />
<circle cx="355.0" cy="345.0" r="2.5" fill="#000080" />
<circle cx="5.0" cy="355.0" r="2.5" fill="#000080" />
<circle cx="65.0" cy="355.0" r="2.5" fill="#000080" />
<circle cx="95.0" cy="355.0" r="2.5" fill="#000080" />
<circle cx="105.0" cy="355.0" r="2.5" fill="#000080" />
<circle cx="125.0" cy="355.0" r="2.5" fill="#000080" />
<circle cx="135.0" cy="355.0" r="2.5" fill="#000080" />
<circle cx="145.0" cy="355.0" r="2.5" fill="#000080" />
<circle cx="155.0" cy="355.0" r="2.5" fill="#000080" />
<circle cx="165.0" cy="355.0" r="2.5" fill="#000080" />
<circle cx="185.0" cy="355.0" r="2.5" fill="#000080" />
<circle cx="195.0" cy="355.0" r="2.5" fill="#000080" />
<circle cx="205.0" cy="355.0" r="2.5" fill="#000080" />
<circle cx="255.0" cy="355.0" r="2.5" fill="#000080" />
<circle cx="265.0" cy="355.0" r="2.5" fill="#000080" />
<circle cx="315.0" cy="355.0" r="2.5" fill="#000080" />
<circle cx="335.0" cy="355.0" r="2.5" fill="#000080" />
<circle cx="345.0" cy="355.0" r="2.5" fill="#000080" />
<circle cx="5.0" cy="365.0" r="2.5" fill="#000080" />
<circle cx="15.0" cy="365.0" r="2.5" fill="#000080" />
<circle cx="25.0" cy="365.0" r="2.5" fill="#000080" />
<circle cx="35.0" cy="365.0" r="2.5" fill="#000080" />
<circle cx="45.0" cy="365.0" r="2.5" fill="#000080" />
<circle cx="55.0" cy="365.0" r="2.5" fill="#000080" />
<circle cx="65.0" cy="365.0" r="2.5" fill="#000080" />
<circle cx="115.0" cy="365.0" r="2.5" fill="#000080" />
<circle cx="165.0" cy="365.0" r="2.5" fill="#000080" />
<circle cx="185.0" cy="365.0" r="2.5" fill="#000080" />
<circle cx="205.0" cy="365.0" r="2.5" fill="#000080" />
<circle cx="215.0" cy="365.0" r="2.5" fill="#000080" />
<circle cx="225.0" cy="365.0" r="2.5" fill="#000080" />
<circle cx="255.0" cy="365.0" r="2.5" fill="#000080" />
<circle cx="265.0" cy="365.0" r="2.5" fill="#000080" />
<circle cx="295.0" cy="365.0" r="2.5" fill="#000080" />
<circle cx="305.0" cy="365.0" r="2.5" fill="#000080" />
<circle cx="315.0" cy="365.0" r="2.5" fill="#000080" />
<circle cx="325.0" cy="365.0" r="2.5" fill="#000080" />
<circle cx="335.0" cy="365.0" r="2.5" fill="#000080" />
<circle cx="345.0" cy="365.0" r="2.5" fill="#000080" />
<circle cx="355.0" cy="365.0" r="2.5" fill="#000080" />
<circle cx="365.0" cy="365.0" r="2.5" fill="#000080" />
</svg>